<svg width="19" height="19" viewBox="0 0 19 19" fill="none" xmlns="http://www.w3.org/2000/svg">
<path fill-rule="evenodd" clip-rule="evenodd" d="M7.30424 1.70808C4.15463 1.70808 1.64197 4.26054 1.64197 7.35807C1.64197 10.4556 4.15463 13.0081 7.30424 13.0081C10.4538 13.0081 12.9665 10.4556 12.9665 7.35807C12.9665 4.26054 10.4538 1.70808 7.30424 1.70808ZM0.331787 7.35807C0.331787 3.46311 3.47588 0.347046 7.30424 0.347046C11.1326 0.347046 14.2767 3.46311 14.2767 7.35807C14.2767 11.253 11.1326 14.3691 7.30424 14.3691C3.47588 14.3691 0.331787 11.253 0.331787 7.35807Z" fill="#484848"/>
<path fill-rule="evenodd" clip-rule="evenodd" d="M11.628 11.6049C11.8791 11.3344 12.2939 11.3267 12.5542 11.5876L18.1317 17.1767C18.3921 17.4376 18.3996 17.8684 18.1484 18.1389C17.8972 18.4094 17.4825 18.4172 17.2221 18.1562L11.6446 12.5671C11.3842 12.3062 11.3768 11.8754 11.628 11.6049Z" fill="#484848"/>
</svg>
